<?xml version="1.0" encoding="utf-8"?>
<!-- Generator: Adobe Illustrator 16.2.1, SVG Export Plug-In . SVG Version: 6.00 Build 0)  -->
<svg version="1.1" id="Layer_1" xmlns="http://www.w3.org/2000/svg" xmlns:xlink="http://www.w3.org/1999/xlink" x="0px" y="0px"
	 width="504.7519531px" height="99.2646484px" viewBox="0 0 504.7519531 99.2646484"
	 enable-background="new 0 0 504.7519531 99.2646484" xml:space="preserve">
<g>
	<g>
		<path fill="#1E1E1E" d="M214.9790039,30.4555664c-0.5507812-0.0463867-8.1582031-0.706543-9.2036133-0.8144531
			c-5.0517578-0.5209961-7.1625977-5.7895508-7.1625977-9.137207v-2.5595703c0-3.296875,1.0693359-10.0732422,9.3369141-10.0732422
			c5.2084961,0,17.215332,0,17.215332,0l-0.0043945-7.8632812c0,0-11.6103516,0-19.6943359,0
			c-14.347168,0-19.1005859,11.8032227-19.1005859,18.0527344v4.3178711c0,5.1352539,3.5449219,16.2749023,15.6679688,17.6606445
			c1.359375,0.1552734,4.4980469,0.3803711,6.0644531,0.5068359c5.8300781,0.4707031,8.3569336,4.8642578,8.3569336,9.5488281
			c0,1.3310547-0.0234375,3.1074219-0.0234375,3.8378906c0,8.7910156-5.690918,10.7011719-8.9262695,10.7011719
			c-3.1669922,0-18.3754883,0-18.3754883,0v7.7568359c0,0,17.8193359,0,23.253418,0
			c10.5336914,0,16.855957-8.7216797,16.855957-19.1679688v-4.5146484
			C229.2392578,40.0791016,223.7275391,31.1967773,214.9790039,30.4555664z M251.3925781,8.0395508l-12.8554688-0.0063477
			c0,0,0,42.2680664,0,49.1083984c0,6.0253906,4.3979492,15.2519531,14.6845703,15.2519531c6.9824219,0,8.5429688,0,8.5429688,0
			v-7.75c0,0-0.8134766,0-5.7373047,0c-2.4335938,0-4.6318359-1.6933594-4.6318359-5.78125c0-3.1455078,0-33.7329102,0-33.7329102
			h13.7763672v-7.8579102h-13.7792969V8.0395508z M78.0585938,43.5332031c0,5.3911133,0.0053711,2.7866211,0.0053711,12.1230469
			c0,11.7871094,7.8876953,16.7431641,13.6376953,16.7431641c7.7353516,0,12.84375,0,12.84375,0v-7.7675781
			c0,0-4.6464844,0-8.2285156,0c-2.3569336,0-5.4150391-0.296875-5.4150391-7.2246094V42.0996094
			c0-16.0288086,5.3964844-16.9707031,9.0791016-16.9707031c8.7709961,0,10.2851562,0,10.2851562,0v47.3115234l12.7416992-0.0322266
			V17.2749023c0,0-11.0673828,0-21.8354492,0C92.8901367,17.2749023,78.0585938,18.8154297,78.0585938,43.5332031z
			 M55.9624023,0.0048828v72.3876953h12.7207031L68.6811523,0.0048828H55.9624023z M270.3125,43.5332031
			c0,5.3911133,0.0058594,2.7866211,0.0058594,12.1230469c0,11.7871094,7.8876953,16.7431641,13.6376953,16.7431641
			c7.7353516,0,12.84375,0,12.84375,0v-7.7675781c0,0-4.6464844,0-8.2285156,0c-2.3574219,0-5.4150391-0.296875-5.4150391-7.2246094
			V42.0996094c0-16.0288086,5.3964844-16.9707031,9.0791016-16.9707031c8.7705078,0,10.2851562,0,10.2851562,0v47.3115234
			l12.7421875-0.0322266V17.2749023c0,0-11.0673828,0-21.8359375,0C285.1445312,17.2749023,270.3125,18.8154297,270.3125,43.5332031
			z M155.6767578,53.5068359l-12.3085938-36.2324219h-13.4296875l18.6235352,54.6923828l-10.4785156,27.2978516h11.0898438
			l32.6762695-81.984375h-12.1313477L155.6767578,53.5068359z M31.3696289,0.0004883C20.1118164,0.0004883,0,0.0151367,0,0.0151367
			V72.390625l12.7543945,0.0009766V7.8823242c0,0,9.7836914,0,15.0361328,0c4.390625,0,7.4970703,5.3266602,7.4970703,14.6625977
			c0,9.0473633-2.7651367,14.9790039-7.6279297,14.9790039c-5.1352539,0-9.2875977,0-9.2875977,0v7.753418
			c0,0,6.8291016-0.0024414,13.1982422-0.0024414c5.4492188,0,16.4677734-5.0112305,16.4677734-22.4316406
			C48.0380859,4.5175781,37.5429688,0.0004883,31.3696289,0.0004883z M459.3857422,17.2763672
			c-10.8613281,0-22.703125,0-22.703125,0v55.1181641l12.9306641,0.0019531V25.1191406c0,0,2.3095703,0,10.4707031,0
			c7.9746094,0,8.7373047,9.0678711,8.7373047,17.3398438c0,7.9013672,0,29.9326172,0,29.9326172h12.7861328
			c0,0,0-23.6035156,0-30.1098633C481.6074219,27.2485352,475.3417969,17.2763672,459.3857422,17.2763672z M404.9375,17.2802734
			c-22.3066406,0-23.4384766,17.8720703-23.4384766,24.2607422v7.1123047c0,9.3222656,3.3310547,23.7490234,23.7490234,23.7490234
			c18.5712891,0,23.1425781-13.0820312,23.1425781-24.1845703v-6.6391602
			C428.390625,38.3369141,428.3808594,17.2802734,404.9375,17.2802734z M415.4853516,47.2841797
			c0,10.8164062-1.8984375,17.3779297-10.4550781,17.3779297c-7.2451172,0-10.7128906-3.9140625-10.7128906-17.4980469v-4.6894531
			c0-9.2353516,1.1865234-17.3774414,10.6367188-17.3774414c9.2900391,0,10.53125,7.7797852,10.53125,17.4047852V47.2841797z
			 M338.6074219,8.0395508l-12.8554688-0.0063477c0,0,0,42.2680664,0,49.1083984
			c0,6.0253906,4.3974609,15.2519531,14.6845703,15.2519531c6.9824219,0,8.5429688,0,8.5429688,0v-7.75c0,0-0.8134766,0-5.7373047,0
			c-2.4335938,0-4.6318359-1.6933594-4.6318359-5.78125c0-3.1455078,0-33.7329102,0-33.7329102h13.7763672v-7.8579102h-13.7792969
			V8.0395508z M497.5449219,57.9462891c-3.9814453,0-7.2080078,3.2265625-7.2080078,7.2070312
			s3.2265625,7.2080078,7.2080078,7.2080078c3.9804688,0,7.2070312-3.2275391,7.2070312-7.2080078
			S501.5253906,57.9462891,497.5449219,57.9462891z M497.5439453,71.3710938c-3.4335938,0-6.2167969-2.7841797-6.2167969-6.2177734
			s2.7832031-6.2177734,6.2167969-6.2177734c3.4345703,0,6.21875,2.7841797,6.21875,6.2177734
			S500.9785156,71.3710938,497.5439453,71.3710938z M360.2236328,72.3994141h12.7558594V17.2749023h-12.7558594V72.3994141z
			 M360.2236328,10.8266602h12.7558594V0h-12.7558594V10.8266602z M500.796875,68.3730469
			c-0.0390625-0.1464844-0.0634766-0.3681641-0.0742188-0.6669922l-0.0371094-1.0498047
			c-0.0175781-0.4550781-0.1044922-0.7832031-0.2587891-0.9863281c-0.1542969-0.2021484-0.3847656-0.3662109-0.6904297-0.4902344
			c0.3486328-0.1806641,0.6191406-0.4208984,0.8125-0.7197266c0.1943359-0.2988281,0.2910156-0.6816406,0.2910156-1.1513672
			c0-0.8984375-0.3613281-1.515625-1.0830078-1.8496094c-0.3808594-0.1738281-0.8642578-0.2607422-1.4501953-0.2607422h-3.5595703
			v7.8300781h1.0605469v-3.3583984h2.3466797c0.4208984,0,0.7294922,0.0478516,0.9267578,0.1445312
			c0.3457031,0.1738281,0.5292969,0.5166016,0.5537109,1.0283203l0.0644531,1.3056641
			c0.0146484,0.3066406,0.0322266,0.5117188,0.0537109,0.6191406c0.0214844,0.1064453,0.0498047,0.1933594,0.0849609,0.2607422
			h1.3007812v-0.1757812C500.9746094,68.78125,500.8613281,68.6210938,500.796875,68.3730469z M499.3408203,64.4873047
			c-0.2822266,0.1992188-0.6650391,0.2978516-1.1484375,0.2978516h-2.3847656V62.109375h2.5195312
			c0.3525391,0,0.6337891,0.0537109,0.8447266,0.1601562c0.3945312,0.2021484,0.5908203,0.5830078,0.5908203,1.140625
			C499.7626953,63.9287109,499.6220703,64.2880859,499.3408203,64.4873047z"/>
	</g>
</g>
<g>
</g>
<g>
</g>
<g>
</g>
<g>
</g>
<g>
</g>
<g>
</g>
</svg>
