<?xml version="1.0" encoding="utf-8"?>
<svg version="1.1"
	 id="svg2" xmlns:cc="http://creativecommons.org/ns#" xmlns:dc="http://purl.org/dc/elements/1.1/" xmlns:inkscape="http://www.inkscape.org/namespaces/inkscape" xmlns:rdf="http://www.w3.org/1999/02/22-rdf-syntax-ns#" xmlns:sodipodi="http://sodipodi.sourceforge.net/DTD/sodipodi-0.dtd" xmlns:svg="http://www.w3.org/2000/svg"
	 xmlns="http://www.w3.org/2000/svg" xmlns:xlink="http://www.w3.org/1999/xlink" x="0px" y="0px" viewBox="0 0 13586.6 2282.3"
	 style="enable-background:new 0 0 13586.6 2282.3;" xml:space="preserve">
<style type="text/css">
	.st0{fill:#177D3E;}
	.st1{fill-rule:evenodd;clip-rule:evenodd;fill:#696969;}

	<!-- White overwrite -->
	.st0{fill:#fff;}
	.st1{fill-rule:evenodd;clip-rule:evenodd;fill:#fff;}
</style>
<g>
	<path class="st0" d="M1004,9.4c-85,10.6-194.3,36.1-263.3,63c-76.6,29-170.6,75.8-170.6,85c0,5.7,16.7,10.6,43.9,13.5
		c97.5,11.3,278.6,88.5,442.3,186.9c39.7,24.1,78.7,43.9,85.7,43.9c7.7,0,46-19.8,85-43.9c93.3-57.3,247.3-133.1,318.3-157.2
		c32-10.6,82.2-22.7,112.1-27.6c36.2-5,55-11.3,55-17c0-20.5-162.3-90.6-275.1-118.9C1288.9-0.5,1152.4-9,1004,9.4z M330.5,339.3
		c-186,192.6-287,401.4-321.1,669C-6.6,1132.9-2.4,1239.1,24,1375c25.8,131,85,278.2,154.6,382.3c46,69.4,53.6,68.7,59.2-5.7
		c21.6-278.9,234.7-662,589.2-1055.6c30.6-34.7,56.4-67.3,56.4-71.5c0-9.9-105.9-114.7-183.9-182.7
		c-104.5-90.6-240.3-174.9-280-174.9C404.3,267.1,384.8,283.3,330.5,339.3z M1811.9,287.6c-88.5,43.2-207.6,133.8-322.5,246.4
		c-46,44.6-83.6,86.4-83.6,92s34.1,48.9,75.9,96.3c300.9,340.5,491.7,665.5,550.9,937.4c7.7,34.7,13.9,82.1,13.9,106.2
		c0,39.6,1.4,44.6,13.2,44.6c16,0,79.4-99.1,119.1-187.6c80.8-176.3,109.3-322.8,102.4-525.3c-7-234.3-69.6-426.2-198.5-610.3
		c-59.2-85-189.4-220.2-211.7-220.2C1862.1,267.1,1835.6,276.3,1811.9,287.6z M1064.6,912.7c-165.1,145.8-383.1,375.2-507,534.5
		c-131.6,168.5-273,396.5-273,438.9c0,13.5,73.1,89.2,139.3,145.1c232.6,195.4,570.4,286,888,238.6
		c245.2-36.8,468-150.1,653.3-331.3c28.6-27.6,32.7-35.4,32.7-60.9c-0.7-130.3-252.1-453.1-667.9-857.4
		c-112.8-109.7-175.5-165.7-185.3-165.7C1136.3,854.7,1102.2,879.5,1064.6,912.7z"/>
	<g>
		<polygon class="st0" points="2572,353.1 3173.6,1170.3 2513.9,2069.1 2739.8,2069.1 3287.3,1325.1 3835.4,2069.1 4061.1,2069.1 
			3401.4,1170.3 4003.5,353.1 3777.8,353.1 3287.1,1019.8 2796.9,353.1 		"/>
		<polygon class="st0" points="7068.9,353.1 7671,1170.3 7011.6,2069.4 7237.5,2069.4 7785.3,1325.1 8333.3,2069.4 8559,2069.4 
			7899.3,1170.3 8500.9,353.1 8275.5,353.1 7785.3,1019.8 7294.5,353.1 		"/>
		<path class="st0" d="M6370.3,313.3c-482,0-818.8,368.8-818.8,896.7c0,528.7,336.9,897.2,818.8,897.2
			c481.7,0,817.5-368.5,817.5-897.2C7187.8,682.1,6852,313.3,6370.3,313.3z M6370.3,495c366.7,0,622.6,294,622.6,715.1
			c0,421.4-256,715.9-622.6,715.9c-367.2,0-624.5-294.5-624.5-715.9C5745.8,789,6003.1,495,6370.3,495z"/>
		<path class="st0" d="M4154.8,353.1V1093h-232.1c-30.2,39.2-98.5,133.4-124.6,172.1h356.7v804l697,0.3
			c377.5,0,612.1-191.8,612.1-501c0-135.1-51.1-250.1-148.1-333.2c-35.8-30.5-74.7-54.2-112.4-71.6
			c124.5-67.6,206.2-195.3,206.2-343.5c0-109.8-40.4-467-557.8-467H4154.8z M4347.5,532.2h504.3c136.6,0,365.1,33.9,365.1,272.7
			c0,180.5-133.2,288.1-365.1,288.1h-504.3V532.2z M4347.5,1265.4h504.3c191.2,0,420,52.9,420,299.2c0,283.2-263,325.6-420,325.6
			h-504.3V1265.4z"/>
	</g>

</g>
</svg>
